<svg width="20.5" xmlns="http://www.w3.org/2000/svg" height="20" fill="none">
    <g class="fills">
        <rect rx="0" ry="0" width="20.5" height="20"
            transform="matrix(1.000000, 0.000000, 0.000000, 1.000000, 0.000000, 0.000000)" class="frame-background" />
    </g>
    <g class="frame-children">
        <path
            d="M0.000,9.000C0.000,9.000,1.500,0.000,10.000,0.000C19.500,0.000,20.500,9.000,20.500,9.000L15.500,9.000C15.500,9.000,14.500,4.500,10.000,4.500C6.000,4.500,5.000,9.000,5.000,9.000L0.000,9.000Z"
            style="fill: rgb(255, 255, 255); fill-opacity: 1;" class="fills" />
        <path
            d="M0.000,11.000C0.000,11.000,1.500,20.000,10.000,20.000C19.500,20.000,20.500,11.000,20.500,11.000L15.500,11.000C15.500,11.000,14.500,15.500,10.000,15.500C6.000,15.500,5.000,11.000,5.000,11.000L0.000,11.000Z"
            style="fill: rgb(255, 255, 255); fill-opacity: 1;" class="fills" />
        <ellipse cx="10.25" cy="10.25" rx="3.25" ry="3.25"
            transform="matrix(1.000000, 0.000000, 0.000000, 1.000000, 0.000000, 0.000000)"
            style="fill: rgb(255, 255, 255); fill-opacity: 1;" class="fills" />
    </g>
</svg>