<svg width="22" xmlns="http://www.w3.org/2000/svg" height="22" fill="none">
    <g class="fills">
        <rect rx="0" ry="0" width="22" height="22"
            transform="matrix(1.000000, 0.000000, 0.000000, 1.000000, 0.000000, 0.000000)" class="frame-background" />
    </g>
    <g class="frame-children">
        <path
            d="M0.000,9.900C0.000,9.900,1.610,0.000,10.732,0.000C20.927,0.000,22.000,9.900,22.000,9.900L16.634,9.900C16.634,9.900,15.561,4.950,10.732,4.950C6.439,4.950,5.366,9.900,5.366,9.900L0.000,9.900Z"
            style="fill: rgb(229, 96, 115); fill-opacity: 1;" class="fills" />
        <path
            d="M0.000,12.100C0.000,12.100,1.610,22.000,10.732,22.000C20.927,22.000,22.000,12.100,22.000,12.100L16.634,12.100C16.634,12.100,15.561,17.050,10.732,17.050C6.439,17.050,5.366,12.100,5.366,12.100L0.000,12.100Z"
            style="fill: rgb(255, 255, 255); fill-opacity: 1;" class="fills" />
        <ellipse cx="11" cy="11.275" rx="3.488" ry="3.575"
            transform="matrix(1.000000, 0.000000, 0.000000, 1.000000, 0.000000, 0.000000)"
            style="fill: rgb(255, 255, 255); fill-opacity: 1;" class="fills" />
    </g>
</svg>