<svg width="26" xmlns="http://www.w3.org/2000/svg" height="26" fill="none"><g style="fill: rgb(0, 0, 0);"><ellipse cx="13" cy="13" rx="13" ry="13" transform="matrix(1.000000, 0.000000, 0.000000, 1.000000, 0.000000, 0.000000)" style="fill: rgb(255, 255, 255); fill-opacity: 1;" class="fills"/><path d="M3.000,8.500L8.591,8.500L8.591,10.364L4.864,10.364L4.864,12.227L8.591,12.227L8.591,14.091L4.864,14.091L4.864,15.955L8.591,15.955L8.591,17.818L3.000,17.818L3.000,8.500ZM12.318,8.500L16.045,8.500L16.045,10.364L12.318,10.364L12.318,12.227L14.182,12.227C15.211,12.227,16.045,13.062,16.045,14.091L16.045,15.955C16.045,16.989,15.216,17.818,14.182,17.818L10.455,17.818L10.455,15.955L14.182,15.955L14.182,14.091L12.318,14.091C11.289,14.091,10.455,13.257,10.455,12.227L10.455,10.364C10.455,9.339,11.293,8.500,12.318,8.500ZM19.773,8.500L21.636,8.500C22.666,8.500,23.500,9.334,23.500,10.364L23.500,11.295L21.636,11.295L21.636,10.364L19.773,10.364L19.773,15.955L21.636,15.955L21.636,15.023L23.500,15.023L23.500,15.955C23.500,16.989,22.671,17.818,21.636,17.818L19.773,17.818C18.743,17.818,17.909,16.984,17.909,15.955L17.909,10.364C17.909,9.339,18.748,8.500,19.773,8.500Z" class="fills"/></g></svg>