<svg width="26" xmlns="http://www.w3.org/2000/svg" height="26" fill="none"><g style="fill: rgb(0, 0, 0);"><ellipse cx="13" cy="13" rx="13" ry="13" transform="matrix(1.000000, 0.000000, 0.000000, 1.000000, 0.000000, 0.000000)" style="fill: rgb(255, 255, 255); fill-opacity: 1;" class="fills"/><path d="M14.000,10.000L14.000,2.070C17.940,2.560,21.000,5.920,21.000,10.000ZM12.000,10.000L12.000,2.070C8.749,2.480,6.075,4.829,5.250,8.000C5.090,8.640,5.000,9.310,5.000,10.000ZM7.340,8.000C7.820,6.650,8.780,5.500,10.000,4.810L10.000,8.000ZM7.000,16.000L7.000,14.000L19.000,14.000L19.000,16.000C19.000,17.590,18.370,19.120,17.240,20.240C16.118,21.368,14.591,22.002,13.000,22.000C11.409,22.002,9.882,21.368,8.760,20.240C7.632,19.118,6.998,17.591,7.000,16.000ZM5.000,16.000C5.000,18.120,5.840,20.160,7.340,21.660C8.840,23.160,10.880,24.000,13.000,24.000C15.120,24.000,17.160,23.160,18.660,21.660C20.160,20.160,21.000,18.120,21.000,16.000L21.000,12.000L5.000,12.000Z" class="fills"/></g></svg>