<svg width="1407.716" xmlns="http://www.w3.org/2000/svg" height="1412.814" viewBox="-175.89 -173.169 1407.716 1412.814"
    fill="none">
    <path
        d="M695.189,804.238L579.181,858.333C579.181,858.333,660.145,944.157,685.424,932.369C710.801,920.536,695.189,804.238,695.189,804.238ZL837.479,737.887C910.509,703.833,942.152,616.894,908.098,543.864L812.163,338.132C778.109,265.102,691.170,233.459,618.140,267.513L465.880,338.513L218.458,453.888C145.428,487.942,113.785,574.881,147.840,647.911L243.774,853.643C277.828,926.673,364.767,958.316,437.797,924.262L579.181,858.333M352.592,391.340C352.592,391.340,299.040,252.030,319.652,237.884C324.667,234.442,382.905,231.559,385.263,227.150C386.465,224.901,365.269,131.902,379.009,128.555C388.917,126.142,480.998,244.186,478.771,259.679C474.352,290.428,433.041,278.913,434.602,287.999C436.532,299.237,465.880,338.513,465.880,338.513M188.262,625.752C165.870,577.732,186.676,520.567,234.696,498.175L642.535,307.997C690.554,285.605,747.720,306.411,770.112,354.431L866.046,560.163C888.438,608.182,867.631,665.348,819.612,687.740L411.773,877.918C363.753,900.310,306.588,879.503,284.196,831.484L188.262,625.752Z"
        style="fill: rgb(255, 123, 76); fill-opacity: 1;" class="fills" />
    <ellipse cx="369.015" cy="555.258" rx="27.5" ry="27.61"
        transform="matrix(0.422618, 0.906308, -0.906308, 0.422618, 716.296606, -13.845234)"
        style="fill: rgb(255, 123, 76); fill-opacity: 1;" class="fills" />
    <rect rx="0" ry="0" x="427.01" y="461.296"
        transform="matrix(0.906308, -0.422618, 0.422618, 0.906308, -152.431867, 269.015967)" width="207" height="34"
        style="fill: rgb(255, 123, 76); fill-opacity: 1;" class="fills" />
    <ellipse cx="410.431" cy="644.076" rx="27.5" ry="27.61"
        transform="matrix(0.422618, 0.906308, -0.906308, 0.422618, 820.706381, -0.099427)"
        style="fill: rgb(255, 123, 76); fill-opacity: 1;" class="fills" />
    <rect rx="0" ry="0" x="468.427" y="550.114"
        transform="matrix(0.906308, -0.422618, 0.422618, 0.906308, -186.087632, 294.840945)" width="207" height="34"
        style="fill: rgb(255, 123, 76); fill-opacity: 1;" class="fills" />
    <ellipse cx="454.384" cy="738.332" rx="27.5" ry="27.61"
        transform="matrix(0.422618, 0.906308, -0.906308, 0.422618, 931.508592, 14.487961)"
        style="fill: rgb(255, 123, 76); fill-opacity: 1;" class="fills" />
    <rect rx="0" ry="0" x="512.379" y="644.37"
        transform="matrix(0.906308, -0.422618, 0.422618, 0.906308, -221.803955, 322.247043)" width="207" height="34"
        style="fill: rgb(255, 123, 76); fill-opacity: 1;" class="fills" />
</svg>