<svg class="img-fluid" id="outputsvg" xmlns="http://www.w3.org/2000/svg"
    style="/* transform: matrix(2.8561, 0, 0, 2.8561, 11.1439, 163.991); */transform-origin: 50% 50%;cursor: move;max-height: none;transition: none;"
    width="160" height="160" viewBox="0 0 1600 1600">
    <g id="l3TItO60DTbBQrSzaTjLVWI" fill="rgb(255,255,255,0)" style="transform: none;">
        <g style="transform: none;">
            <path id="pmRPDjcLk"
                d="M0 800 l0 -800 800 0 800 0 0 800 0 800 -800 0 -800 0 0 -800z m860 761 c0 -8 -130 -3 -139 5 -2 2 28 4 67 4 40 0 72 -4 72 -9z m-8 -373 c50 -15 60 -44 24 -73 -30 -24 -34 -61 -11 -105 23 -45 11 -36 -22 15 -24 39 -32 45 -63 45 -28 0 -39 -6 -52 -27 l-17 -28 -1 41 c0 28 -6 47 -20 59 -28 25 -25 49 8 66 56 28 80 29 154 7z m-186 -255 l-15 -28 -1 27 c0 14 6 28 13 31 19 7 20 1 3 -30z m254 7 c0 -16 -2 -30 -4 -30 -2 0 -9 14 -15 30 -8 24 -7 30 5 30 9 0 14 -10 14 -30z m62 -90 c-3 -26 1 -47 10 -58 17 -21 58 -97 58 -107 0 -4 -8 3 -18 16 -19 24 -92 170 -92 182 0 4 10 7 23 7 20 0 22 -4 19 -40z m-352 25 c0 -10 -30 -65 -35 -65 -3 0 -5 16 -5 35 0 28 4 35 20 35 11 0 20 -2 20 -5z m550 -408 c0 -5 9 -20 20 -34 21 -27 27 -48 10 -38 -6 4 -24 34 -41 68 -21 44 -24 55 -10 37 11 -14 21 -29 21 -33z m-372 -42 c16 -34 17 -32 -28 -37 -37 -3 -39 -2 -26 17 7 11 16 26 20 33 11 19 22 15 34 -13z m572 -304 l20 -41 -200 0 -200 0 -30 48 c-16 26 -29 54 -29 62 0 8 12 -9 27 -38 l26 -52 171 2 170 3 -1 40 c0 22 -4 49 -8 60 -11 27 28 -34 54 -84z m-965 -19 c139 2 172 0 162 -9 -9 -9 -64 -13 -196 -13 -101 -1 -186 1 -189 4 -3 3 6 26 19 51 l24 46 3 -41 3 -41 174 3z">
            </path>
        </g>
    </g>
    <g id="l6T59HngC73WHP0rJzLS5US" fill="rgb(8,183,111)" style="transform: none;">
        <g style="transform: none;">
            <path id="pJx3Ub7TH"
                d="M685 1585 c-164 -20 -209 -32 -302 -78 -153 -77 -231 -180 -234 -308 -1 -42 4 -76 14 -95 15 -28 72 -91 117 -128 36 -29 149 -85 205 -101 84 -25 83 -21 24 -131 -29 -55 -60 -110 -69 -124 -10 -14 -55 -92 -101 -174 -46 -82 -93 -165 -105 -185 -11 -20 -33 -61 -49 -91 -16 -30 -37 -67 -47 -81 -14 -21 -15 -29 -5 -37 14 -11 445 -11 463 0 6 4 40 58 75 119 102 178 104 182 117 187 7 2 16 -8 21 -21 5 -14 13 -26 18 -28 4 -2 18 -24 31 -49 12 -25 29 -56 36 -70 7 -14 24 -47 37 -73 13 -27 30 -53 37 -59 11 -10 165 -13 440 -9 26 1 32 5 32 24 0 20 -65 150 -90 180 -24 29 -65 96 -92 152 -39 80 -54 106 -129 216 -9 14 -34 61 -54 105 -21 43 -44 87 -52 96 -19 21 -9 38 22 38 13 0 70 22 127 48 81 39 114 60 154 104 63 66 83 103 94 174 8 49 6 59 -25 127 -28 60 -44 81 -94 120 -108 85 -214 126 -381 147 -52 6 -104 13 -115 14 -11 2 -65 -2 -120 -9z m335 -86 c82 -22 190 -73 246 -116 51 -40 97 -143 88 -197 -14 -82 -88 -163 -186 -203 -33 -13 -71 -31 -84 -40 -26 -17 -117 -24 -122 -9 -4 10 20 24 86 52 53 22 127 100 140 148 26 94 -59 199 -203 250 -101 36 -324 33 -397 -5 -10 -5 -25 -9 -33 -9 -8 0 -38 -16 -65 -35 -27 -19 -53 -35 -57 -35 -11 0 -49 -69 -57 -104 -5 -18 -1 -46 11 -78 21 -59 73 -106 167 -148 50 -22 64 -33 60 -45 -8 -19 -50 -13 -139 21 -97 36 -145 66 -201 123 -57 60 -72 105 -59 183 16 91 197 221 348 248 173 31 337 31 457 -1z m-76 -154 c74 -19 126 -42 126 -54 0 -5 9 -13 21 -16 30 -10 62 -87 53 -128 -13 -61 -129 -147 -197 -147 -28 0 -36 5 -49 34 -16 33 -16 34 13 55 31 23 35 41 19 88 -14 38 -82 64 -161 60 -73 -3 -122 -30 -139 -74 -11 -33 -10 -37 20 -68 25 -26 30 -37 24 -59 -8 -32 -33 -47 -64 -39 -43 11 -111 51 -151 87 -34 32 -39 43 -39 80 0 64 37 105 135 152 44 20 103 41 130 45 67 9 190 2 259 -16z m-124 -357 c51 -75 74 -113 121 -208 39 -76 113 -197 130 -210 4 -3 28 -48 53 -100 61 -126 75 -150 86 -150 5 0 12 -9 15 -20 3 -11 13 -26 20 -34 20 -19 65 -125 57 -130 -4 -3 -68 -5 -142 -5 l-135 -1 -39 76 c-21 41 -45 82 -54 90 -15 16 -29 39 -96 166 -21 40 -40 75 -42 77 -6 7 -34 -21 -34 -34 0 -8 -22 -49 -48 -92 -26 -43 -56 -94 -65 -113 -10 -19 -35 -64 -56 -100 l-38 -65 -142 -3 c-99 -2 -141 1 -141 9 0 11 33 73 89 167 17 29 31 55 31 58 0 3 8 18 19 32 10 15 37 63 61 107 24 44 55 98 69 120 14 22 33 54 41 70 34 68 194 345 199 345 3 0 22 -24 41 -52z">
            </path>
        </g>
    </g>
</svg>